<?xml version="1.0" standalone="no"?>
<!DOCTYPE svg PUBLIC "-//W3C//DTD SVG 20010904//EN"
 "http://www.w3.org/TR/2001/REC-SVG-20010904/DTD/svg10.dtd">
<svg version="1.0" xmlns="http://www.w3.org/2000/svg"
 width="250.000000pt" height="100.000000pt" viewBox="0 0 250.000000 100.000000"
 preserveAspectRatio="xMidYMid meet">

<g transform="translate(0.000000,100.000000) scale(0.100000,-0.100000)"
fill="#000000" stroke="none">
<path d="M137 923 c-4 -3 -7 -19 -7 -35 0 -18 -5 -28 -14 -28 -8 0 -18 -5 -22
-11 -4 -8 1 -9 17 -3 13 4 32 7 42 6 9 0 15 3 12 8 -3 5 -1 11 5 15 5 3 10 12
10 18 0 7 -5 4 -11 -5 -15 -26 -29 -22 -29 8 0 21 4 25 20 21 11 -3 18 -1 14
4 -6 11 -28 12 -37 2z"/>
<path d="M944 917 c-7 -18 18 -62 36 -64 8 -1 26 -4 40 -8 14 -3 5 5 -20 17
-25 13 -46 31 -48 41 -5 26 27 21 38 -5 5 -14 9 -17 9 -7 2 32 -44 53 -55 26z"/>
<path d="M356 838 c-3 -13 -6 -171 -6 -353 l0 -330 104 -39 105 -38 86 31 c48
17 96 36 106 42 19 10 19 24 19 359 l-1 350 -203 0 c-203 0 -204 0 -210 -22z
m246 -245 c10 -9 18 -22 18 -30 0 -7 5 -13 11 -13 6 0 8 7 5 17 -4 10 -4 14 0
10 4 -4 15 0 25 9 10 9 25 14 34 11 25 -10 17 -51 -15 -82 -16 -15 -27 -32
-24 -36 2 -4 -1 -11 -7 -15 -8 -4 -9 -3 -5 4 12 19 -9 14 -28 -7 -12 -13 -16
-27 -11 -43 4 -14 3 -18 -2 -10 -7 9 -17 4 -38 -18 -67 -70 -179 -13 -145 74
6 18 19 28 40 32 25 6 30 11 30 36 0 33 42 78 73 78 11 0 29 -7 39 -17z"/>
<path d="M525 556 c-8 -13 -12 -31 -9 -40 8 -22 45 -36 72 -29 22 5 36 29 23
38 -5 3 -11 -2 -15 -10 -8 -23 -53 -19 -59 5 -3 11 -1 23 4 26 5 3 7 9 4 13
-2 5 7 7 20 5 14 -1 25 2 25 7 0 19 -50 8 -65 -15z"/>
<path d="M655 538 l-16 -33 21 24 c11 13 20 27 20 32 0 18 -10 8 -25 -23z"/>
<path d="M560 529 c0 -5 5 -7 10 -4 6 3 10 8 10 11 0 2 -4 4 -10 4 -5 0 -10
-5 -10 -11z"/>
<path d="M458 469 c-22 -13 -23 -52 -2 -73 8 -9 28 -16 43 -16 30 0 56 21 43
35 -4 5 -2 5 4 2 7 -4 19 4 27 17 16 23 15 24 -12 28 -20 3 -27 0 -24 -8 7
-18 -14 -52 -37 -59 -39 -13 -68 38 -36 64 11 9 12 6 8 -14 -3 -20 0 -25 17
-25 18 0 22 5 19 27 -3 30 -23 39 -50 22z"/>
<path d="M233 843 c20 -2 54 -2 75 0 20 2 3 4 -38 4 -41 0 -58 -2 -37 -4z"/>
<path d="M828 843 c23 -2 61 -2 85 0 23 2 4 4 -43 4 -47 0 -66 -2 -42 -4z"/>
<path d="M1196 638 c-9 -12 -16 -34 -15 -48 1 -22 2 -21 9 7 4 18 13 40 20 48
7 8 10 15 7 15 -3 0 -13 -10 -21 -22z"/>
<path d="M1610 635 c-6 -8 -10 -19 -8 -24 1 -6 8 1 15 14 13 28 11 31 -7 10z"/>
<path d="M2112 615 c0 -16 2 -22 5 -12 2 9 2 23 0 30 -3 6 -5 -1 -5 -18z"/>
<path d="M1632 578 c-10 -30 -10 -31 3 -14 13 17 21 46 12 46 -1 0 -8 -15 -15
-32z"/>
<path d="M1251 584 c0 -11 3 -14 6 -6 3 7 2 16 -1 19 -3 4 -6 -2 -5 -13z"/>
<path d="M2208 572 c9 -10 19 -17 21 -16 6 5 -20 34 -30 34 -5 0 -1 -8 9 -18z"/>
<path d="M1275 570 c-3 -6 1 -7 9 -4 18 7 21 14 7 14 -6 0 -13 -4 -16 -10z"/>
<path d="M1990 553 c0 -5 10 -18 23 -29 l22 -19 -20 25 c-11 14 -21 27 -22 29
-2 2 -3 0 -3 -6z"/>
<path d="M2278 536 c-4 -21 -3 -23 13 -13 10 6 15 14 11 17 -4 3 -10 9 -13 13
-4 4 -9 -3 -11 -17z"/>
<path d="M2171 534 c0 -11 3 -14 6 -6 3 7 2 16 -1 19 -3 4 -6 -2 -5 -13z"/>
<path d="M1584 525 c-3 -8 -4 -20 -1 -27 3 -7 6 -3 6 9 1 12 7 24 14 26 9 4 9
6 -1 6 -7 1 -15 -6 -18 -14z"/>
<path d="M1230 516 c0 -2 8 -10 18 -17 15 -13 16 -12 3 4 -13 16 -21 21 -21
13z"/>
<path d="M2162 504 c4 -3 0 -21 -8 -39 -11 -27 -11 -35 -1 -41 6 -4 9 -4 5 1
-4 4 -1 23 7 42 18 43 18 43 3 43 -6 0 -9 -3 -6 -6z"/>
<path d="M1379 491 c10 -7 13 -22 8 -58 l-5 -48 12 37 c11 37 39 67 63 68 6 0
14 -15 16 -32 l4 -33 1 33 c2 40 -17 50 -51 27 -22 -14 -25 -14 -30 0 -4 8
-12 15 -19 15 -10 0 -9 -3 1 -9z"/>
<path d="M1638 493 c7 -3 16 -2 19 1 4 3 -2 6 -13 5 -11 0 -14 -3 -6 -6z"/>
<path d="M1874 478 l-19 -23 23 19 c21 18 27 26 19 26 -2 0 -12 -10 -23 -22z"/>
<path d="M2302 478 c-16 -17 -22 -19 -23 -8 -2 26 -17 -33 -17 -65 0 -29 0
-29 12 7 6 20 22 48 35 62 30 32 24 35 -7 4z"/>
<path d="M2348 473 c5 -21 7 -23 10 -9 2 10 0 22 -6 28 -6 6 -7 0 -4 -19z"/>
<path d="M1130 475 c-6 -8 -10 -20 -7 -27 4 -8 6 -7 6 4 1 9 9 22 19 27 9 6
12 11 6 11 -6 0 -17 -7 -24 -15z"/>
<path d="M1797 457 l-17 -32 20 24 c17 20 26 41 18 41 -2 0 -11 -15 -21 -33z"/>
<path d="M1272 435 c0 -16 2 -22 5 -12 2 9 2 23 0 30 -3 6 -5 -1 -5 -18z"/>
<path d="M1565 414 c-3 -25 -4 -48 -1 -52 3 -3 6 5 6 17 0 12 7 35 15 51 13
25 13 30 1 30 -9 0 -16 -16 -21 -46z"/>
<path d="M1734 445 c-5 -13 -9 -13 -22 -3 -14 12 -14 11 -1 -9 18 -30 26 -29
31 2 6 28 1 33 -8 10z"/>
<path d="M1130 401 c5 -11 15 -23 21 -27 6 -3 3 5 -6 20 -20 30 -30 35 -15 7z"/>
<path d="M1926 394 c-18 -25 -18 -25 3 -12 12 7 21 18 21 25 0 18 -2 16 -24
-13z"/>
<path d="M1730 391 c0 -6 4 -13 10 -16 6 -3 7 1 4 9 -7 18 -14 21 -14 7z"/>
<path d="M2389 383 c-13 -16 -12 -17 4 -4 16 13 21 21 13 21 -2 0 -10 -8 -17
-17z"/>
<path d="M2053 380 c2 -8 12 -16 23 -17 13 -2 15 -1 4 4 -8 3 -19 11 -23 17
-6 7 -7 6 -4 -4z"/>
<path d="M2150 380 c0 -5 5 -10 11 -10 5 0 7 5 4 10 -3 6 -8 10 -11 10 -2 0
-4 -4 -4 -10z"/>
<path d="M1658 363 c7 -3 16 -2 19 1 4 3 -2 6 -13 5 -11 0 -14 -3 -6 -6z"/>
</g>
</svg>
