<?xml version="1.0" standalone="no"?>
<!DOCTYPE svg PUBLIC "-//W3C//DTD SVG 20010904//EN"
 "http://www.w3.org/TR/2001/REC-SVG-20010904/DTD/svg10.dtd">
<svg version="1.0" xmlns="http://www.w3.org/2000/svg"
 width="200.000000pt" height="150.000000pt" viewBox="0 0 200.000000 150.000000"
 preserveAspectRatio="xMidYMid meet">

<g transform="translate(0.000000,150.000000) scale(0.100000,-0.100000)"
fill="#000000" stroke="none">
<path d="M557 1373 c-4 -3 -7 -18 -7 -33 0 -18 -8 -31 -22 -39 -23 -11 -23
-11 2 -5 14 3 33 6 43 5 9 0 15 4 12 9 -3 5 -1 11 5 15 5 3 10 12 10 18 0 7
-5 4 -11 -5 -15 -26 -29 -22 -29 8 0 21 4 25 20 21 11 -3 18 -1 14 4 -6 11
-28 12 -37 2z"/>
<path d="M1365 1370 c-10 -16 17 -68 35 -68 8 0 26 -3 40 -6 23 -5 23 -5 -3 6
-20 9 -26 17 -21 30 10 33 -34 65 -51 38z m40 -10 c4 -6 4 -18 1 -27 -5 -12
-9 -13 -21 -3 -8 7 -15 19 -15 26 0 16 26 19 35 4z"/>
<path d="M776 1288 c-3 -13 -6 -172 -6 -353 l0 -330 58 -22 c31 -12 80 -29
107 -38 l50 -16 100 38 100 39 3 352 2 352 -204 0 c-203 0 -204 0 -210 -22z
m252 -258 c20 -35 28 -37 37 -11 6 21 38 36 55 26 13 -8 13 -42 -1 -50 -6 -4
-8 -14 -4 -23 3 -9 3 -13 -1 -9 -15 15 -105 -81 -100 -107 2 -6 1 -7 -2 -3 -2
5 -17 -4 -33 -19 -79 -76 -198 27 -120 105 9 9 24 15 34 13 13 -3 17 3 17 28
0 38 39 80 75 80 18 0 31 -9 43 -30z m2 -203 c0 -2 -10 -12 -22 -23 l-23 -19
19 23 c18 21 26 27 26 19z"/>
<path d="M939 1009 c-25 -47 31 -94 77 -64 13 8 24 20 24 25 0 15 -17 12 -24
-5 -7 -20 -52 -19 -60 0 -6 18 30 59 44 50 6 -4 10 -2 10 3 0 19 -60 11 -71
-9z"/>
<path d="M1093 1018 c-19 -25 -35 -61 -24 -54 6 4 18 20 26 37 16 30 15 38 -2
17z"/>
<path d="M872 918 c-17 -17 -15 -54 4 -72 25 -25 63 -19 95 15 35 38 36 45 6
51 -20 4 -22 1 -22 -28 1 -18 -2 -31 -6 -28 -4 2 -10 0 -14 -6 -9 -15 -41 -12
-55 4 -6 8 -10 25 -8 38 4 23 5 22 16 -4 14 -34 42 -28 42 9 0 19 -4 24 -16
19 -8 -3 -12 -2 -9 4 9 14 -19 12 -33 -2z"/>
<path d="M637 1293 c24 -2 62 -2 86 0 23 2 4 4 -43 4 -47 0 -66 -2 -43 -4z"/>
<path d="M1243 1293 c26 -2 67 -2 90 0 23 2 2 3 -48 3 -49 0 -68 -1 -42 -3z"/>
<path d="M830 395 c-7 -9 -11 -17 -9 -20 3 -2 10 5 17 15 14 24 10 26 -8 5z"/>
<path d="M1519 383 c-5 -14 -9 -33 -7 -41 2 -9 8 3 14 26 13 47 9 56 -7 15z"/>
<path d="M406 384 c-8 -22 -8 -62 2 -67 4 -3 7 15 7 39 1 49 0 51 -9 28z"/>
<path d="M470 346 c0 -8 4 -17 9 -20 5 -4 7 3 4 14 -6 23 -13 26 -13 6z"/>
<path d="M856 343 c-6 -14 -5 -15 5 -6 7 7 10 15 7 18 -3 3 -9 -2 -12 -12z"/>
<path d="M1270 299 c0 -16 4 -28 9 -25 8 5 3 56 -5 56 -2 0 -4 -14 -4 -31z"/>
<path d="M1210 313 c0 -5 10 -18 23 -29 l22 -19 -20 25 c-11 14 -21 27 -22 29
-2 2 -3 0 -3 -6z"/>
<path d="M1498 297 c-3 -19 -2 -25 4 -19 6 6 8 18 6 28 -3 14 -5 12 -10 -9z"/>
<path d="M813 293 c-14 -13 -18 -24 -12 -38 7 -19 8 -19 8 -1 1 11 8 28 18 38
21 23 12 23 -14 1z"/>
<path d="M1391 294 c0 -11 3 -14 6 -6 3 7 2 16 -1 19 -3 4 -6 -2 -5 -13z"/>
<path d="M450 276 c0 -2 8 -10 18 -17 15 -13 16 -12 3 4 -13 16 -21 21 -21 13z"/>
<path d="M1382 257 c-1 -7 -4 -28 -7 -47 -4 -34 -4 -34 4 -4 4 17 11 36 15 42
3 6 3 13 -2 16 -5 3 -9 0 -10 -7z"/>
<path d="M1024 240 c0 -13 4 -16 10 -10 7 7 7 13 0 20 -6 6 -10 3 -10 -10z"/>
<path d="M1095 240 c-10 -11 -16 -22 -14 -24 2 -2 12 7 22 20 22 29 17 32 -8
4z"/>
<path d="M1525 240 c-14 -16 -20 -17 -27 -8 -6 10 -8 9 -8 -3 0 -9 -2 -32 -5
-50 l-5 -34 16 35 c32 69 69 91 77 45 4 -23 4 -23 3 2 -1 35 -26 41 -51 13z"/>
<path d="M350 235 c-7 -9 -11 -17 -9 -20 3 -2 10 5 17 15 14 24 10 26 -8 5z"/>
<path d="M611 234 c0 -12 -3 -37 -6 -55 l-5 -34 11 30 c6 17 21 41 33 55 l21
25 -22 -18 c-21 -18 -21 -18 -26 0 -4 15 -5 15 -6 -3z"/>
<path d="M692 220 c0 -14 2 -19 5 -12 2 6 2 18 0 25 -3 6 -5 1 -5 -13z"/>
<path d="M947 194 c-10 -19 -13 -33 -7 -29 5 3 10 -1 10 -9 0 -8 3 -17 8 -19
4 -3 7 17 7 44 0 27 0 49 -1 49 0 0 -8 -16 -17 -36z"/>
<path d="M492 195 c0 -16 2 -22 5 -12 2 9 2 23 0 30 -3 6 -5 -1 -5 -18z"/>
<path d="M790 192 c0 -28 2 -27 18 4 9 16 8 21 -4 21 -8 0 -14 -10 -14 -25z"/>
<path d="M350 161 c5 -11 15 -23 21 -27 6 -3 3 5 -6 20 -20 30 -30 35 -15 7z"/>
<path d="M1145 153 l-17 -28 23 22 c12 12 20 25 17 28 -3 3 -13 -7 -23 -22z"/>
<path d="M781 144 c0 -11 3 -14 6 -6 3 7 2 16 -1 19 -3 4 -6 -2 -5 -13z"/>
<path d="M1370 151 c0 -10 29 -36 34 -30 1 2 -6 12 -16 22 -10 9 -18 13 -18 8z"/>
<path d="M1429 143 c-13 -16 -12 -17 4 -4 16 13 21 21 13 21 -2 0 -10 -8 -17
-17z"/>
<path d="M1615 149 c-4 -6 -17 -14 -29 -19 -14 -6 -16 -9 -5 -9 9 -1 24 8 34
19 10 11 15 20 12 20 -3 0 -9 -5 -12 -11z"/>
<path d="M1278 128 c5 -5 16 -8 23 -6 8 3 3 7 -10 11 -17 4 -21 3 -13 -5z"/>
</g>
</svg>
